<svg width="120" height="40" viewBox="0 0 120 40" fill="none" xmlns="http://www.w3.org/2000/svg">
<path fill-rule="evenodd" clip-rule="evenodd" d="M44.9477 13.4036V26.1526H42.5251V19.5202L39.7996 26.1526H38.4814L35.756 19.5202V26.1526H33.3333V13.4036H35.8272L39.1405 21.4362L42.4538 13.4036H44.9477ZM55.5203 16.1856H57.6402V17.0146C57.7827 16.7199 58.0677 16.4681 58.4952 16.2593C58.9227 16.0505 59.3918 15.9461 59.9025 15.9461C60.3894 15.9461 60.8466 16.0597 61.2741 16.2869C61.7016 16.5141 62.0728 16.8488 62.3875 17.291C62.7022 17.7331 62.9516 18.2797 63.1356 18.9307C63.3197 19.5816 63.4117 20.3247 63.4117 21.1599C63.4117 22.0197 63.3227 22.775 63.1445 23.426C62.9664 24.0769 62.723 24.6235 62.4142 25.0657C62.1054 25.5078 61.7402 25.8394 61.3187 26.0605C60.8971 26.2816 60.4369 26.3921 59.9381 26.3921C59.4037 26.3921 58.9732 26.3062 58.6466 26.1342C58.32 25.9623 58.0855 25.7473 57.943 25.4894V29.4627L55.5203 30V16.1856ZM59.3324 24.0155C60.5081 24.0155 61.0959 23.0698 61.0959 21.1783C61.0959 20.2571 60.9505 19.557 60.6595 19.078C60.3686 18.599 59.95 18.3595 59.4037 18.3595C58.9999 18.3595 58.6644 18.5038 58.3972 18.7925C58.13 19.0811 57.9251 19.4219 57.7826 19.815V22.6522C57.9489 23.1066 58.1716 23.4474 58.4506 23.6747C58.7297 23.9019 59.0236 24.0155 59.3324 24.0155ZM66.9032 16.1855V26.1526H64.4627V16.1855H66.9032ZM64.4627 13.9747C64.4627 13.6186 64.5755 13.3115 64.8012 13.0536C65.0268 12.7956 65.3178 12.6667 65.674 12.6667C66.0066 12.6667 66.2946 12.7956 66.538 13.0536C66.7815 13.3115 66.9032 13.6186 66.9032 13.9747C66.9032 14.3187 66.7815 14.6104 66.538 14.8499C66.2946 15.0894 66.0066 15.2091 65.674 15.2091C65.3178 15.2091 65.0268 15.0894 64.8012 14.8499C64.5755 14.6104 64.4627 14.3187 64.4627 13.9747ZM68.1679 13.5694L70.5905 12.7219V26.1526H68.1679V13.5694ZM71.8553 13.5694L74.278 12.7219V26.1526H71.8553V13.5694ZM87.4239 16.1856V16.8672C87.5901 16.5847 87.8633 16.3606 88.2433 16.1948C88.6233 16.029 89.0211 15.9461 89.4368 15.9461C89.7099 15.9461 89.9742 15.9891 90.2295 16.075C90.4848 16.161 90.6837 16.3023 90.8262 16.4988L89.9534 18.728C89.6565 18.4578 89.3299 18.3227 88.9736 18.3227C88.6768 18.3227 88.4066 18.4363 88.1631 18.6635C87.9197 18.8907 87.7208 19.2439 87.5664 19.7229V26.1526H85.1437V16.1856H87.4239ZM81.4474 25.4258C80.8018 26.0056 80.0497 26.408 79.247 26.408C76.467 26.408 75.3016 24.0739 75.3016 21.1947C75.3016 18.3154 76.467 15.9813 79.247 15.9813C80.1111 15.9813 80.8455 16.3564 81.4474 16.9196V16.1165H83.9161V26.2729H81.4474V25.4258ZM81.4473 22.9087C81.1382 23.601 80.5917 24.0333 79.8018 24.0474C78.3082 24.0741 77.7352 22.8027 77.7083 21.2221C77.6813 19.6416 78.2107 18.3504 79.7043 18.3237C80.4744 18.3099 81.0987 18.8143 81.4473 19.6256V22.9087ZM52.0957 25.4258C51.4502 26.0056 50.6981 26.408 49.8954 26.408C47.1153 26.408 45.95 24.0739 45.95 21.1947C45.95 18.3154 47.1153 15.9813 49.8954 15.9813C50.7595 15.9813 51.4939 16.3564 52.0957 16.9196V16.1165H54.5645V26.2729H52.0957V25.4258ZM52.0958 22.9087C51.7866 23.601 51.2401 24.0333 50.4503 24.0474C48.9566 24.0741 48.3836 22.8027 48.3567 21.2221C48.3298 19.6416 48.8592 18.3504 50.3528 18.3237C51.1228 18.3099 51.7471 18.8143 52.0958 19.6256V22.9087ZM95.2972 29.6899H92.7677L94.2819 25.2867L91.1111 16.1855H93.7831L95.5823 21.9705L97.3814 16.1855H100L95.2972 29.6899Z" fill="#212B36"/>
<path fill-rule="evenodd" clip-rule="evenodd" d="M9.65757 17.7088C9.07081 17.8759 8.98576 18.5309 9.45075 18.783C9.61691 18.8731 16.477 22.5082 16.7566 22.6556C17.0363 22.803 17.3693 22.7198 17.5388 22.47C17.6366 22.3259 17.9062 21.882 18.1168 21.5322C18.2712 21.2757 18.1246 20.9137 17.8609 20.7883C17.7019 20.7127 16.7096 20.1842 15.9208 19.764C15.4014 19.4873 14.9702 19.2577 14.9231 19.2352C14.3555 18.9641 14.5598 18.3203 14.9802 18.181L17.1094 17.4759C17.3234 17.405 17.5066 17.2226 17.5788 17.0106L18.2862 14.9356C18.5015 14.3042 19.1418 14.4541 19.3544 14.8447C19.5251 15.1586 19.7955 15.6432 20.0667 16.1293C20.4708 16.8538 20.8768 17.5816 20.9578 17.7523C21.0932 18.0376 21.3773 18.1658 21.6739 17.9816C21.7433 17.9385 21.8678 17.8654 22.0101 17.7818C22.2035 17.6682 22.4299 17.5353 22.596 17.4318C22.8842 17.2523 22.9661 16.941 22.839 16.66C22.7515 16.4667 20.9934 13.2701 19.8739 11.2344C19.3664 10.3116 18.9901 9.62731 18.9601 9.56958C18.6893 9.04845 18.025 9.05042 17.8415 9.58873L15.8797 15.3432C15.8057 15.5602 15.6338 15.7303 15.4135 15.8042C14.1918 16.2142 10.1547 17.5673 9.65757 17.7088ZM28.0428 28.6115C27.7671 28.4628 19.0324 23.8415 18.6721 23.6576C18.3119 23.4736 18.2242 23.1575 18.4169 22.8148C18.5149 22.6405 18.7274 22.2929 18.9006 22.0128C19.1388 21.6275 19.4859 21.6264 19.6818 21.7406C19.8034 21.8115 20.9165 22.3995 21.7871 22.8594C22.32 23.1409 22.762 23.3744 22.8301 23.4119C23.2535 23.6451 23.878 23.1112 23.5979 22.6434C23.4641 22.4201 22.2955 20.2885 21.9242 19.586C21.7553 19.2663 21.8014 18.9788 22.178 18.7875C22.3644 18.6928 22.6978 18.4952 22.987 18.3197C23.2823 18.1405 23.6754 18.2752 23.8351 18.5422C23.9405 18.7182 26.034 22.5693 27.4908 25.2492C28.2431 26.6329 28.8256 27.7044 28.877 27.7965C29.1768 28.3338 28.5937 28.9085 28.0428 28.6115Z" fill="#05CB63"/>
</svg>
